<svg width="512" height="389" viewBox="0 0 512 389" fill="none" xmlns="http://www.w3.org/2000/svg">
<path d="M433.713 32.491C400.063 17.1011 364.544 6.17975 328.061 0.005C323.108 8.878 318.573 18.161 314.569 27.514C295.163 24.5863 275.565 23.1129 255.94 23.106C236.346 23.106 216.656 24.595 197.303 27.476C193.351 18.146 188.76 8.895 183.778 0C147.343 6.212 111.733 17.196 78.1019 32.555C11.2349 131.475 -6.88615 227.923 2.17385 323.001C41.3286 351.921 85.1508 373.916 131.737 388.031C142.184 373.928 151.543 358.915 159.489 343.291C144.329 337.642 129.7 330.661 115.773 322.429C119.438 319.771 123.022 317.033 126.485 314.374C166.981 333.393 211.23 343.314 255.999 343.314C300.769 343.314 345.018 333.393 385.516 314.371C389.02 317.231 392.604 319.969 396.228 322.426C382.273 330.673 367.617 337.673 352.432 343.344C360.405 359.002 369.689 373.957 380.184 388.049C426.812 373.979 470.67 351.985 509.834 323.03L509.823 323.041C520.455 212.781 491.661 117.219 433.713 32.491ZM170.948 264.529C145.699 264.529 124.838 241.615 124.838 213.425C124.838 185.236 144.973 162.121 170.867 162.121C196.762 162.121 217.459 185.236 217.017 213.425C216.574 241.615 196.681 264.529 170.948 264.529ZM341.05 264.529C315.76 264.529 294.981 241.615 294.981 213.425C294.981 185.236 315.116 162.121 341.05 162.121C366.984 162.121 387.522 185.236 387.079 213.425C386.636 241.615 366.783 264.529 341.05 264.529Z" fill="black"/>
</svg>
